<svg width="330" height="40" viewBox="0 0 330 40" fill="none" xmlns="http://www.w3.org/2000/svg">
<mask id="mask0" mask-type="alpha" maskUnits="userSpaceOnUse" x="0" y="0" width="40" height="27">
<path fill-rule="evenodd" clip-rule="evenodd" d="M6.10352e-05 0H39.5291V26.2584H6.10352e-05V0Z" fill="white"/>
</mask>
<g mask="url(#mask0)">
<path fill-rule="evenodd" clip-rule="evenodd" d="M6.10352e-05 2.60378L33.6518 12.6727L27.7752 14.4314L6.10352e-05 6.12063V9.63748L21.8985 16.1896L16.0212 17.9483L6.10352e-05 13.1543V16.6712L10.1446 19.7064L6.10352e-05 22.7416V26.2585L39.5291 14.4314V12.8399C39.5291 11.696 38.7654 10.6858 37.6475 10.3514L3.43591 0.115289C1.72758 -0.396253 6.10352e-05 0.85503 6.10352e-05 2.60378Z" fill="#5DDEDA"/>
</g>
<path fill-rule="evenodd" clip-rule="evenodd" d="M0 33.2539L39.5614 22.1114V18.7976L0 29.9406V33.2539Z" fill="#5DDEDA"/>
<mask id="mask1" mask-type="alpha" maskUnits="userSpaceOnUse" x="0" y="25" width="40" height="15">
<path fill-rule="evenodd" clip-rule="evenodd" d="M0.000305176 25.7744H39.5287V39.9999H0.000305176V25.7744Z" fill="white"/>
</mask>
<g mask="url(#mask1)">
<path fill-rule="evenodd" clip-rule="evenodd" d="M3.43615 39.886L37.6472 29.7961C38.7651 29.466 39.5287 28.4708 39.5287 27.3432V25.7744L0.000305176 37.4331C0.000305176 39.1569 1.72722 40.3903 3.43615 39.886Z" fill="#5DDEDA"/>
</g>
<path fill-rule="evenodd" clip-rule="evenodd" d="M62.2173 29.2354C64.7827 29.2354 66.8929 27.7398 67.9271 25.6874L71.4035 27.995C69.707 31.117 66.5614 33.2538 62.0519 33.2538C54.0665 33.2538 50.0692 27.7427 50.1776 19.7615C50.2843 11.8098 54.2656 6.32412 62.0519 6.26916C66.5614 6.23666 69.707 8.40718 71.4035 11.5273L67.9271 13.835C66.8929 11.7838 64.7827 10.2875 62.2173 10.2875C57.0038 10.2875 54.852 15.6621 54.852 19.8046C54.852 23.9471 57.0038 29.2354 62.2173 29.2354Z" fill="#7D7D7D"/>
<path fill-rule="evenodd" clip-rule="evenodd" d="M76.2281 6.2688H80.5593V15.9265C81.7291 14.6979 83.7213 13.5114 86.753 13.5114C91.4306 13.5114 93.5965 16.138 93.5965 21.0526V33.2538H89.2217V21.4761C89.2217 18.8073 88.2256 17.4515 85.1939 17.4515C83.2447 17.4515 81.5124 18.299 80.5593 19.2735V33.2538H76.2281V6.2688Z" fill="#7D7D7D"/>
<path fill-rule="evenodd" clip-rule="evenodd" d="M109.515 27.6533L111.513 30.4527C110.181 31.9384 107.558 33.2539 104.561 33.2539C98.1913 33.2539 95.5263 29.0105 95.5263 23.1131C95.5263 17.5553 98.3584 13.0151 104.145 13.0151C109.723 13.0151 111.93 17.1307 111.93 21.2885C111.93 22.2644 111.847 23.665 111.638 24.4709H99.7733C99.8565 27.5677 101.355 29.5624 104.561 29.5624C106.184 29.5624 108.058 28.9688 109.515 27.6533ZM107.974 21.3318C108.017 21.0767 108.017 20.7799 108.017 20.6104C108.017 18.0221 106.435 16.4949 104.145 16.4949C101.147 16.4949 99.9397 18.6157 99.7733 21.3318H107.974Z" fill="#7D7D7D"/>
<path fill-rule="evenodd" clip-rule="evenodd" d="M129.779 27.6533L131.776 30.4527C130.444 31.9384 127.822 33.2539 124.824 33.2539C118.454 33.2539 115.789 29.0105 115.789 23.1131C115.789 17.5553 118.621 13.0151 124.408 13.0151C129.986 13.0151 132.193 17.1307 132.193 21.2885C132.193 22.2644 132.11 23.665 131.901 24.4709H120.036C120.12 27.5677 121.617 29.5624 124.824 29.5624C126.447 29.5624 128.321 28.9688 129.779 27.6533ZM128.237 21.3318C128.28 21.0767 128.28 20.7799 128.28 20.6104C128.28 18.0221 126.698 16.4949 124.408 16.4949C121.41 16.4949 120.202 18.6157 120.036 21.3318H128.237Z" fill="#7D7D7D"/>
<path fill-rule="evenodd" clip-rule="evenodd" d="M147.556 18.3612C146.447 17.1735 144.763 16.2832 142.591 16.2832C140.241 16.2832 139.266 17.3852 139.266 18.7008C139.266 19.7618 139.841 20.5682 141.438 20.9072L144.852 21.6709C148.708 22.5196 150.526 24.4287 150.526 27.2287C150.526 30.3683 148.177 33.2539 142.102 33.2539C137.802 33.2539 135.365 31.4715 134.123 29.9864L136.738 27.3988C137.848 28.6293 139.398 29.9864 142.236 29.9864C144.453 29.9864 146.004 29.1806 146.004 27.5683C146.004 26.4228 145.073 25.7442 143.432 25.3624L139.929 24.5137C136.516 23.7072 134.788 21.7559 134.788 19.0826C134.788 16.2832 136.916 13.0151 142.723 13.0151C146.58 13.0151 148.841 14.458 150.127 15.8163L147.556 18.3612Z" fill="#7D7D7D"/>
<path fill-rule="evenodd" clip-rule="evenodd" d="M166.445 27.6533L168.444 30.4527C167.111 31.9384 164.488 33.2539 161.491 33.2539C155.12 33.2539 152.456 29.0105 152.456 23.1131C152.456 17.5553 155.287 13.0151 161.074 13.0151C166.653 13.0151 168.86 17.1307 168.86 21.2885C168.86 22.2644 168.776 23.665 168.569 24.4709H156.703C156.785 27.5677 158.285 29.5624 161.491 29.5624C163.114 29.5624 164.987 28.9688 166.445 27.6533ZM164.904 21.3318C164.946 21.0767 164.946 20.7799 164.946 20.6104C164.946 18.0221 163.364 16.4949 161.074 16.4949C158.077 16.4949 156.869 18.6157 156.703 21.3318H164.904Z" fill="#7D7D7D"/>
<path fill-rule="evenodd" clip-rule="evenodd" d="M180.597 13.0151C184.057 13.0151 186.748 14.4157 188.158 17.1301L185.082 19.2949C184.185 17.7254 182.861 16.7917 180.897 16.7917C177.437 16.7917 176.154 19.4644 176.154 23.1131C176.154 26.7624 177.437 29.4351 180.897 29.4351C182.861 29.4351 184.227 28.502 185.124 26.9741L188.158 29.1378C186.792 31.8533 184.057 33.2539 180.597 33.2539C174.361 33.2539 171.754 28.7143 171.754 23.1131C171.754 17.5976 174.361 13.0151 180.597 13.0151Z" fill="#7D7D7D"/>
<path fill-rule="evenodd" clip-rule="evenodd" d="M204.363 32.787V30.4533C203.112 31.8533 201.039 33.2539 197.932 33.2539C194.349 33.2539 192.018 31.1319 192.018 27.6949C192.018 23.58 195.687 21.7559 201.342 21.3319L204.104 21.0339V19.5066C204.104 17.5553 203.241 16.4521 200.479 16.4521C198.061 16.4521 196.896 17.3002 196.896 18.5307V19.4644H193.097C193.054 19.0398 193.01 18.5741 193.01 18.1489C193.01 15.1371 195.774 13.0151 200.737 13.0151C205.529 13.0151 208.421 15.0521 208.421 19.4644V32.787H204.363ZM199.4 29.9013C201.299 29.9013 203.025 29.0116 204.104 27.9083V23.7494L201.385 24.1318C198.234 24.5553 196.464 25.4896 196.464 27.4421C196.464 29.0538 197.457 29.9013 199.4 29.9013Z" fill="#7D7D7D"/>
<path fill-rule="evenodd" clip-rule="evenodd" d="M223.746 33.2538L218.263 24.2297L215.502 26.9412V33.2538H211.316V6.2688H215.502V21.8995L223.494 13.9354H228.684L221.234 21.2646L228.475 33.2538H223.746Z" fill="#7D7D7D"/>
<path fill-rule="evenodd" clip-rule="evenodd" d="M243.639 27.6533L245.638 30.4527C244.305 31.9384 241.682 33.2539 238.683 33.2539C232.313 33.2539 229.649 29.0105 229.649 23.1131C229.649 17.5553 232.48 13.0151 238.268 13.0151C243.846 13.0151 246.053 17.1307 246.053 21.2885C246.053 22.2644 245.971 23.665 245.762 24.4709H233.896C233.979 27.5677 235.477 29.5624 238.683 29.5624C240.308 29.5624 242.181 28.9688 243.639 27.6533ZM242.098 21.3318C242.14 21.0767 242.14 20.7799 242.14 20.6104C242.14 18.0221 240.558 16.4949 238.268 16.4949C235.27 16.4949 234.061 18.6157 233.896 21.3318H242.098Z" fill="#7D7D7D"/>
<path fill-rule="evenodd" clip-rule="evenodd" d="M272.105 29.4557V33.2537H255.702V7.23242H260.31V29.4557H272.105Z" fill="#7D7D7D"/>
<path fill-rule="evenodd" clip-rule="evenodd" d="M286.381 32.787V30.4533C285.129 31.8533 283.058 33.2539 279.95 33.2539C276.366 33.2539 274.035 31.1319 274.035 27.6949C274.035 23.58 277.705 21.7559 283.36 21.3319L286.121 21.0339V19.5066C286.121 17.5553 285.259 16.4521 282.496 16.4521C280.078 16.4521 278.914 17.3002 278.914 18.5307V19.4644H275.115C275.071 19.0398 275.029 18.5741 275.029 18.1489C275.029 15.1371 277.79 13.0151 282.755 13.0151C287.547 13.0151 290.439 15.0521 290.439 19.4644V32.787H286.381ZM281.417 29.9013C283.316 29.9013 285.043 29.0116 286.121 27.9083V23.7494L283.403 24.1318C280.252 24.5553 278.481 25.4896 278.481 27.4421C278.481 29.0538 279.474 29.9013 281.417 29.9013Z" fill="#7D7D7D"/>
<path fill-rule="evenodd" clip-rule="evenodd" d="M299.438 15.388C300.357 14.3459 301.818 13.3885 304.49 13.3885C310.043 13.3885 312.632 17.1364 312.632 23.259C312.632 29.2561 309.876 33.2538 304.49 33.2538C301.526 33.2538 299.731 32.1709 298.687 31.088L297.435 32.7961H295.263V6.2688H299.438V15.388ZM303.53 17.2618C301.317 17.2618 300.064 18.2607 299.438 19.0529V27.3816C300.148 28.3396 301.567 29.3804 303.53 29.3804C307.329 29.3804 308.331 26.7569 308.331 23.259C308.331 19.7598 307.246 17.2618 303.53 17.2618Z" fill="#7D7D7D"/>
<path fill-rule="evenodd" clip-rule="evenodd" d="M327.03 18.3612C325.922 17.1735 324.237 16.2832 322.065 16.2832C319.715 16.2832 318.739 17.3852 318.739 18.7008C318.739 19.7618 319.317 20.5682 320.911 20.9072L324.326 21.6709C328.183 22.5196 330 24.4287 330 27.2287C330 30.3683 327.652 33.2539 321.578 33.2539C317.277 33.2539 314.838 31.4715 313.596 29.9864L316.213 27.3988C317.321 28.6293 318.872 29.9864 321.711 29.9864C323.927 29.9864 325.479 29.1806 325.479 27.5683C325.479 26.4228 324.548 25.7442 322.908 25.3624L319.405 24.5137C315.991 23.7072 314.262 21.7559 314.262 19.0826C314.262 16.2832 316.39 13.0151 322.198 13.0151C326.054 13.0151 328.317 14.458 329.602 15.8163L327.03 18.3612Z" fill="#7D7D7D"/>
</svg>
