<svg width="20" height="20" viewBox="0 0 20 20" fill="none" xmlns="http://www.w3.org/2000/svg">
<path fill-rule="evenodd" clip-rule="evenodd" d="M0.916649 7.78702L7.78702 0.916648C9.00922 -0.305552 10.9908 -0.305547 12.213 0.916649L19.0834 7.78702C20.3056 9.00922 20.3055 10.9908 19.0834 12.213L12.213 19.0834C10.9908 20.3056 9.00921 20.3055 7.78702 19.0834L0.916648 12.213C-0.305552 10.9908 -0.305547 9.00921 0.916649 7.78702ZM2.39197 9.26234C1.98457 9.66974 1.98457 10.3303 2.39197 10.7377L9.26234 17.608C9.66974 18.0154 10.3303 18.0154 10.7377 17.608L17.608 10.7377C18.0154 10.3303 18.0154 9.66974 17.608 9.26234L10.7377 2.39197C10.3303 1.98457 9.66974 1.98457 9.26234 2.39197L2.39197 9.26234ZM10 11.304C9.27981 11.304 8.69599 10.7202 8.69599 10V5.82716C8.69599 5.10697 9.27981 4.52314 10 4.52314C10.7202 4.52314 11.304 5.10697 11.304 5.82716V10C11.304 10.7202 10.7202 11.304 10 11.304ZM10 15.2161C10.7202 15.2161 11.304 14.6322 11.304 13.912C11.304 13.1919 10.7202 12.608 10 12.608C9.27981 12.608 8.69599 13.1919 8.69599 13.912C8.69599 14.6322 9.27981 15.2161 10 15.2161Z" fill="#2B2B2B"/>
</svg>
